<svg width="1440" height="363" viewBox="0 0 1440 363" fill="none" xmlns="http://www.w3.org/2000/svg">
<g clip-path="url(#clip0_0_1156)">
<path opacity="0.5" d="M-6782.59 356.189L-0.00146484 4.88281e-06L1440 0L8222.59 356.189M28.2227 0L-6488.45 356.189M56.4468 4.88281e-06L-6194.11 356.189M84.6714 4.88281e-06L-5899.97 356.189M112.894 4.88281e-06L-5605.83 356.189M141.118 4.88281e-06L-5311.49 356.189M169.343 0L-5017.35 356.189M197.566 0L-4723.01 356.189M225.791 0L-4428.87 356.189M254.207 0L-4134.72 356.189M282.431 0L-3840.39 356.189M310.654 0L-3546.24 356.189M338.88 4.88281e-06L-3251.9 356.189M367.103 0L-2957.76 356.189M395.327 0L-2663.62 356.189M423.551 0L-2369.28 356.189M451.775 0L-2075.14 356.189M479.998 0L-1780.8 356.189M508.222 0L-1486.66 356.189M536.446 0L-1192.51 356.189M564.67 0L-898.178 356.189M592.895 0L-604.034 356.189M621.119 0L-309.697 356.189M649.342 0L-15.5537 356.189M677.567 0L278.591 356.189M705.791 0L572.927 356.189M734.207 0L867.07 356.189M762.431 0L1161.41 356.189M790.655 0L1455.55 356.189M818.881 4.88281e-06L1749.7 356.189M847.102 0L2044.03 356.189M875.326 0L2338.17 356.189M903.553 4.88281e-06L2632.51 356.189M931.774 0L2926.65 356.189M959.999 0L3220.8 356.189M988.225 4.88281e-06L3515.14 356.189M1016.45 0L3809.28 356.189M1044.67 0L4103.62 356.189M1072.9 0L4397.76 356.189M1101.12 0L4691.9 356.189M1129.34 0L4986.24 356.189M1157.57 4.88281e-06L5280.38 356.189M1185.79 0L5574.72 356.189M1214.21 0L5868.86 356.189M1242.43 0L6163.01 356.189M1270.65 0L6457.34 356.189M1298.88 4.88281e-06L6751.49 356.189M1327.1 0L7045.82 356.189M1355.33 0L7339.97 356.189M1383.55 0L7634.11 356.189M1411.77 0L7928.45 356.189M-0.00195312 0.482371H1440M-0.00195312 1.12553H1440M-0.00195312 2.25105H1440M-0.00195312 3.85734H1440M-0.00195312 5.9476H1440M-0.00195312 8.8402H1440M-0.00195312 12.376H1440M-0.00195312 16.7157H1440M-0.00195312 22.0201H1440M-0.00195312 28.1285H1440M-0.00195312 35.3624H1440M-0.00195312 43.7202H1440M-0.00195312 53.3643H1440M-0.00195312 64.134H1440M-0.00195312 76.3492H1440M-0.00195312 90.0114H1440M-0.00195312 105.121H1440M-0.00195312 121.838H1440M-0.00195312 140.322H1440M-0.00195312 160.413H1440M-0.00195312 182.435H1440M-0.00195312 206.384H1440M-0.00195312 232.262H1440M-0.00195312 260.231H1440M-0.00195312 290.287H1440M-0.00195312 322.596H1440M-0.00195312 357.153H1440M-0.00195312 394.123H1440M-0.00195312 433.502H1440M-0.00195312 475.616H1440M-0.00195312 520.139H1440" stroke="url(#paint0_linear_0_1156)" stroke-width="0.5" stroke-miterlimit="10"/>
</g>
<defs>
<linearGradient id="paint0_linear_0_1156" x1="719.985" y1="520.139" x2="719.985" y2="1.04933e-10" gradientUnits="userSpaceOnUse">
<stop stop-color="white"/>
<stop offset="1" stop-color="white" stop-opacity="0"/>
</linearGradient>
<clipPath id="clip0_0_1156">
<rect width="1440" height="363" fill="white"/>
</clipPath>
</defs>
</svg>
