<svg width="386" height="343" viewBox="0 0 386 343" fill="none" xmlns="http://www.w3.org/2000/svg">
<circle cx="248.142" cy="204.177" r="137.857" fill="#505ECE"/>
<mask id="mask0_0_1284" style="mask-type:alpha" maskUnits="userSpaceOnUse" x="0" y="0" width="386" height="343">
<path d="M386 204.178C386 280.314 324.279 342.035 248.143 342.035C172.006 342.035 0 254.233 0 178.097C0 101.96 109.412 0 185.548 0C261.685 0 386 128.041 386 204.178Z" fill="#FF5A5F"/>
</mask>
<g mask="url(#mask0_0_1284)">
<path d="M276.107 281.72H94.8412C91.1222 281.72 88.1055 278.705 88.1055 274.984H280.619V277.206C280.619 279.698 278.598 281.718 276.107 281.718V281.72Z" fill="#2C233D"/>
<path d="M96.3777 276.668L88.3946 276.94L52 106.574L58.8414 105.102L96.3777 276.668Z" fill="#2C233D"/>
<path d="M58.8438 105.102L93.4045 132.68L123.467 263.758L96.3601 276.58L58.8438 105.102Z" fill="#61616C"/>
<path d="M61.5078 109.449L92.9989 133.636L122.035 261.319L96.3759 269.432L61.5078 109.449Z" fill="#2C233D"/>
<path d="M280.62 274.984L256.466 263.758H123.465L95.7031 276.672L280.62 274.984Z" fill="white"/>
<path d="M95.7088 276.762C95.6658 276.762 95.6279 276.732 95.6196 276.691C95.6097 276.648 95.6312 276.605 95.6708 276.587L123.433 263.672C123.445 263.667 123.458 263.664 123.471 263.664H256.472C256.485 263.664 256.498 263.667 256.51 263.672L280.664 274.898C280.704 274.917 280.725 274.96 280.715 275.001C280.707 275.044 280.669 275.074 280.626 275.074L95.7088 276.762ZM123.491 263.847L96.1334 276.574L280.218 274.892L256.452 263.846H123.491V263.847Z" fill="#31313B"/>
<path d="M122.035 272.982H209.931L202.621 264.512H134.681L122.035 272.982Z" fill="#31313B"/>
<path d="M222.172 265.301H245.157C245.533 265.301 245.905 265.377 246.25 265.524L259.728 271.262C260.217 271.47 260.069 272.2 259.537 272.2H229.219C228.158 272.2 227.147 271.757 226.427 270.979L221.852 266.034C221.592 265.755 221.791 265.301 222.172 265.301Z" fill="white"/>
<path d="M259.543 272.291H229.225C228.143 272.291 227.1 271.835 226.365 271.041L221.79 266.096C221.645 265.939 221.608 265.721 221.694 265.524C221.78 265.329 221.965 265.207 222.18 265.207H245.164C245.554 265.207 245.936 265.285 246.294 265.438L259.772 271.176C260.073 271.305 260.161 271.596 260.114 271.827C260.066 272.058 259.873 272.291 259.546 272.291H259.543ZM222.178 265.392C222.012 265.392 221.906 265.499 221.863 265.599C221.82 265.699 221.813 265.85 221.926 265.972L226.5 270.917C227.201 271.673 228.194 272.108 229.225 272.108H259.543C259.782 272.108 259.901 271.938 259.931 271.791C259.961 271.644 259.918 271.44 259.698 271.346L246.22 265.608C245.883 265.465 245.528 265.392 245.161 265.392H222.177H222.178Z" fill="#31313B"/>
<path d="M145.748 264.09L136.906 273.621L137.176 273.872L146.018 264.34L145.748 264.09Z" fill="#EAEEF1"/>
<path d="M156.18 264.323L152.496 273.672L152.839 273.807L156.523 264.459L156.18 264.323Z" fill="#EAEEF1"/>
<path d="M167.672 264.182L167.305 264.211L168.042 273.745L168.409 273.717L167.672 264.182Z" fill="#EAEEF1"/>
<path d="M179.634 264.128L179.305 264.293L184.087 273.827L184.416 273.662L179.634 264.128Z" fill="#EAEEF1"/>
<path d="M191.372 264.18L191.07 264.391L197.669 273.836L197.971 273.625L191.372 264.18Z" fill="#EAEEF1"/>
<path d="M203.321 250.763C202.752 250.763 202.186 250.644 201.622 250.405C201.209 250.23 200.439 249.904 204.371 229.776C206.295 219.935 208.436 210.047 208.457 209.948L208.563 209.457L218.638 219.403L218.608 219.548C218.595 219.614 217.265 226.234 215.003 233.271C211.951 242.767 208.74 248.462 205.46 250.197C204.748 250.573 204.033 250.762 203.319 250.762L203.321 250.763ZM201.88 249.914C202.99 250.372 204.079 250.304 205.202 249.709C212.454 245.873 217.6 221.699 218.036 219.586L208.89 210.556C208.442 212.634 206.66 220.969 205.009 229.388C201.636 246.592 201.678 249.495 201.88 249.914Z" fill="#31313C"/>
<path d="M190.552 266.833C188.655 266.57 190.514 250.457 192.538 236.206C194.16 224.778 205.517 217.429 216.606 220.633L223.37 222.587C223.37 222.587 209.345 226.128 205.393 241.477C201.636 256.067 198.241 267.897 190.554 266.833H190.552Z" fill="white"/>
<path d="M173.23 251.073C173.082 251.073 172.939 251.07 172.795 251.065C169.945 250.956 167.627 249.737 165.902 247.442C165.671 247.135 165.811 246.631 167.226 245.073C168.162 244.04 169.603 242.613 171.508 240.829C174.71 237.832 179.271 233.781 185.064 228.793C194.924 220.301 205.076 211.915 205.177 211.832L205.563 211.512L207.549 227.268L207.466 227.362C207.414 227.423 202.079 233.475 195.19 239.385C186.146 247.143 178.761 251.073 173.23 251.073ZM166.37 247.143C167.986 249.278 170.155 250.411 172.816 250.513C172.949 250.518 173.084 250.522 173.218 250.522C179.934 250.522 188.647 244.27 194.829 238.965C201.225 233.478 206.272 227.873 206.969 227.09L205.14 212.577C203.224 214.165 194.507 221.396 185.895 228.806C168.541 243.733 166.429 246.611 166.37 247.145V247.143Z" fill="#31313C"/>
<path d="M191.581 267.216C191.251 267.216 190.915 267.193 190.572 267.145C190.392 267.12 190.236 267.021 190.106 266.849C188.913 265.268 189.658 254.957 192.321 236.205C193.106 230.679 196.244 225.771 200.931 222.739C205.616 219.707 211.379 218.857 216.74 220.406L224.482 222.643L223.494 222.893C223.459 222.901 219.975 223.805 216.061 226.552C212.456 229.083 207.736 233.745 205.717 241.583C203.807 248.998 202.039 255.517 199.751 260.184C197.413 264.952 194.796 267.216 191.581 267.216ZM190.648 266.598C197.869 267.594 201.226 256.804 205.182 241.446C207.245 233.435 212.074 228.672 215.762 226.086C218.593 224.1 221.156 223.074 222.458 222.632L216.586 220.935C211.379 219.43 205.781 220.256 201.23 223.2C196.678 226.144 193.63 230.912 192.868 236.281C189.405 260.673 189.927 265.694 190.547 266.515C190.569 266.543 190.61 266.591 190.646 266.596L190.648 266.598Z" fill="#31313C"/>
<path d="M185.063 230.832C191.766 221.209 203.427 212.867 221.694 198.999C232.345 190.914 262.155 197.666 296.8 197.359C317.425 197.177 366.759 198.829 368.437 195.008L342.411 215.099C332.827 232.243 320.516 248.345 308.24 247.922C308.008 247.914 269.401 238.523 269.596 238.394C276.824 233.605 268.243 228.128 229.875 223.548C225.416 223.016 218.329 228.058 209.693 231.417C204.031 233.62 204.411 238.612 196.704 242.947C192.404 245.368 186.667 267.463 172.884 262.271C170.624 261.42 181.359 236.147 185.06 230.832H185.063Z" fill="white"/>
<path d="M176.98 263.341C175.626 263.341 174.234 263.07 172.796 262.528C172.661 262.476 172.481 262.351 172.385 262.04C171.404 258.883 181.219 235.879 184.844 230.673C190.933 221.928 201.104 214.236 216.498 202.594C218.119 201.368 219.798 200.099 221.536 198.779C228.518 193.479 243.578 194.475 262.645 195.737C272.943 196.418 284.615 197.191 296.806 197.084C317.05 196.905 377.194 198.558 382.601 200.256L382.783 200.314L382.794 200.504L385.507 247.107L385.159 247.039C352.45 240.711 337.057 239.479 326.315 239.109C326.247 239.109 324.324 239.096 321.415 239.079C314.484 239.039 301.583 238.963 290.356 238.886C284.11 238.843 279.203 238.803 275.775 238.77C273.81 238.75 272.295 238.734 271.271 238.717C270.027 238.699 269.383 238.618 269.34 238.474L269.282 238.278L269.452 238.164C271.136 237.049 271.863 235.952 271.613 234.901C271.303 233.592 269.277 231.564 261.391 229.33C254.332 227.331 243.72 225.477 229.852 223.82C227.095 223.491 223.148 225.433 218.577 227.681C215.942 228.978 212.953 230.447 209.804 231.673C207.116 232.718 205.817 234.422 204.314 236.393C202.69 238.522 200.851 240.936 196.851 243.186C195.653 243.86 194.249 246.301 192.622 249.126C190.628 252.592 188.145 256.904 184.963 259.835C182.42 262.177 179.782 263.341 176.981 263.341H176.98ZM185.07 230.83L185.296 230.989C183.644 233.361 180.342 240.199 177.442 247.251C174.254 255.004 172.519 260.608 172.912 261.877C172.938 261.964 172.971 262.004 172.991 262.011C174.401 262.541 175.726 262.782 176.97 262.782C184.123 262.782 188.677 254.87 192.141 248.851C193.877 245.836 195.247 243.456 196.579 242.706C200.479 240.512 202.282 238.146 203.873 236.059C205.427 234.02 206.769 232.261 209.602 231.159C212.73 229.943 215.707 228.479 218.332 227.187C222.981 224.901 226.994 222.925 229.917 223.273C256.893 226.495 271.101 230.364 272.148 234.774C272.418 235.909 271.836 237.044 270.419 238.149C275.985 238.261 309.747 238.458 321.415 238.526C324.879 238.546 326.287 238.554 326.33 238.555C337.057 238.925 352.402 240.151 384.911 246.428L382.249 200.73C375.839 199.063 316.82 197.457 296.806 197.636C284.592 197.743 272.912 196.97 262.604 196.289C243.653 195.035 228.681 194.044 221.864 199.22C220.126 200.54 218.446 201.809 216.827 203.035C201.476 214.646 191.333 222.317 185.293 230.99L185.067 230.832L185.07 230.83Z" fill="#31313C"/>
<path d="M275.634 226.426C273.055 237.325 246.728 250.084 239.101 255.087C229.308 261.51 234.138 268.94 248.599 266.708C259.912 264.961 277.291 256.294 300.052 254.39C318.996 252.804 328.038 236.439 328.038 236.439L275.636 226.426H275.634Z" fill="white"/>
<path d="M243.71 267.19C238.616 267.19 234.972 265.724 233.961 263.094C232.969 260.514 234.833 257.361 238.947 254.663C240.465 253.669 242.833 252.278 245.575 250.67C256.605 244.201 275.065 233.373 275.355 226.409C275.361 226.26 275.483 226.144 275.63 226.144C275.634 226.144 275.639 226.144 275.642 226.144C275.794 226.151 275.913 226.28 275.906 226.432C275.773 229.654 272.182 233.794 264.931 239.089C258.88 243.508 251.353 247.923 245.854 251.148C243.118 252.752 240.754 254.14 239.249 255.126C235.368 257.672 233.584 260.576 234.476 262.898C235.025 264.323 236.579 265.452 238.853 266.075C241.398 266.772 244.754 266.83 248.554 266.243C252.727 265.599 257.748 264.003 263.562 262.154C273.413 259.022 285.674 255.124 300.026 253.923C309.725 253.112 316.753 248.318 320.943 244.44C325.492 240.229 327.77 236.156 327.793 236.115C327.867 235.981 328.034 235.933 328.168 236.008C328.302 236.082 328.35 236.249 328.277 236.383C328.254 236.424 325.943 240.563 321.335 244.833C317.081 248.777 309.938 253.651 300.074 254.475C285.783 255.671 273.555 259.559 263.73 262.683C257.895 264.538 252.854 266.141 248.64 266.792C246.888 267.063 245.235 267.193 243.711 267.193L243.71 267.19Z" fill="#31313C"/>
<path d="M387.961 189.441L329.124 196.491C329.124 196.491 322.879 241.118 342.115 250.487L390.474 256.257L387.961 189.441Z" fill="#FFC75A"/>
<path d="M115.651 280.171H106.812C106.204 280.171 105.707 279.674 105.707 279.066C105.707 278.458 106.204 277.961 106.812 277.961H115.651C116.259 277.961 116.756 278.458 116.756 279.066C116.756 279.674 116.259 280.171 115.651 280.171Z" fill="#61616C"/>
<path d="M129.034 280.171H120.195C119.587 280.171 119.09 279.674 119.09 279.066C119.09 278.458 119.587 277.961 120.195 277.961H129.034C129.642 277.961 130.139 278.458 130.139 279.066C130.139 279.674 129.642 280.171 129.034 280.171Z" fill="#61616C"/>
</g>
</svg>
