<svg width="393" height="340" viewBox="0 0 393 340" fill="none" xmlns="http://www.w3.org/2000/svg">
<rect width="393" height="340" fill="#F5F5F5"/>
<g clip-path="url(#clip0_0_1)">
<rect width="1440" height="4264" transform="translate(-796 -1257)" fill="white"/>
<path d="M-603 57C-603 43.7452 -592.255 33 -579 33H427C440.255 33 451 43.7452 451 57V449C451 462.255 440.255 473 427 473H-579C-592.255 473 -603 462.255 -603 449V57Z" fill="#505ECE"/>
<path d="M-603 -25C-603 -38.2548 -592.255 -49 -579 -49H427C440.255 -49 451 -38.2548 451 -25V367C451 380.255 440.255 391 427 391H-579C-592.255 391 -603 380.255 -603 367V-25Z" fill="#2C233D"/>
<g opacity="0.5">
<line opacity="0.2" x1="79.1016" x2="79.1016" y2="340" stroke="white"/>
<line opacity="0.2" x1="236.301" x2="236.301" y2="340" stroke="white"/>
<line opacity="0.2" x1="392.359" x2="392.359" y2="340" stroke="white"/>
<line opacity="0.2" y1="29.5" x2="391.861" y2="29.5" stroke="white"/>
<line opacity="0.2" y1="69.5" x2="391.861" y2="69.5" stroke="white"/>
<line opacity="0.2" y1="109.5" x2="391.861" y2="109.5" stroke="white"/>
<line opacity="0.2" y1="149.5" x2="391.861" y2="149.5" stroke="white"/>
<line opacity="0.2" y1="189.5" x2="391.861" y2="189.5" stroke="white"/>
<line opacity="0.2" y1="229.5" x2="391.861" y2="229.5" stroke="white"/>
<line opacity="0.2" y1="269.5" x2="391.861" y2="269.5" stroke="white"/>
<line opacity="0.2" y1="309.5" x2="391.861" y2="309.5" stroke="white"/>
<line opacity="0.2" x1="0.5" x2="0.5" y2="340" stroke="white"/>
<line opacity="0.2" x1="157.699" x2="157.699" y2="340" stroke="white"/>
<line opacity="0.2" x1="313.758" x2="313.758" y2="340" stroke="white"/>
<rect opacity="0.02" width="78.6" height="340" fill="white"/>
<rect opacity="0.02" x="157.199" width="78.6" height="340" fill="white"/>
<rect opacity="0.02" x="314.398" width="78.6" height="340" fill="white"/>
</g>
<path d="M194 171L295.359 276.654" stroke="#747474" stroke-dasharray="4 4"/>
<path d="M194 170L339 139" stroke="#747474" stroke-dasharray="4 4"/>
<path d="M194 170L193 41" stroke="#747474" stroke-dasharray="4 4"/>
<path d="M194 171L46 139" stroke="#747474" stroke-dasharray="4 4"/>
<path d="M194 175L92 277" stroke="#747474" stroke-dasharray="4 4"/>
<rect x="161" y="138" width="65" height="65" rx="6.42655" fill="#FF5A5F"/>
<path d="M192.455 170.053H182.4C181.136 170.053 180.105 171.086 180.105 172.351C180.105 173.614 181.137 174.649 182.4 174.649H190.162V183.168C190.162 184.431 191.196 185.465 192.456 185.465C193.717 185.465 194.751 184.431 194.751 183.168V172.351C194.75 171.086 193.717 170.053 192.455 170.053Z" fill="white"/>
<path d="M204.468 162.478V186.797C204.468 186.837 204.467 186.875 204.466 186.915C204.409 188.128 203.398 189.103 202.173 189.103C200.909 189.103 199.877 188.069 199.877 186.807V164.787H178.141C176.88 164.787 175.848 163.751 175.848 162.488C175.848 161.224 176.88 160.191 178.141 160.191H202.173C202.812 160.191 203.391 160.459 203.808 160.885L203.809 160.884C203.834 160.91 203.859 160.936 203.884 160.962C203.931 161.016 203.977 161.072 204.021 161.13C204.083 161.215 204.139 161.303 204.19 161.395C204.207 161.426 204.223 161.458 204.238 161.489C204.257 161.526 204.274 161.565 204.291 161.603C204.318 161.669 204.343 161.738 204.365 161.806C204.366 161.807 204.366 161.809 204.366 161.81C204.399 161.916 204.424 162.024 204.442 162.136V162.14C204.453 162.213 204.461 162.288 204.466 162.363C204.467 162.401 204.468 162.44 204.468 162.478Z" fill="white"/>
<path d="M214.758 191.269C214.758 191.309 214.757 191.347 214.755 191.387C214.693 192.597 213.686 193.567 212.462 193.567C211.438 193.567 210.562 192.884 210.27 191.95C210.249 191.88 210.23 191.81 210.217 191.739C210.208 191.702 210.202 191.665 210.195 191.627C210.178 191.514 210.169 191.397 210.169 191.279L210.12 155.087V154.898L174.232 154.946C172.97 154.946 171.938 153.914 171.938 152.649C171.938 151.387 172.97 150.351 174.232 150.351L212.411 150.3H212.437C213.644 150.3 214.641 151.247 214.724 152.436C214.726 152.454 214.727 152.472 214.727 152.491C214.728 152.527 214.732 152.562 214.732 152.598C214.732 152.643 214.706 152.68 214.704 152.725L214.758 191.269Z" fill="white"/>
<path d="M214.755 191.387C214.698 192.6 213.689 193.576 212.462 193.576C211.433 193.576 210.558 192.888 210.27 191.95C210.562 192.883 211.437 193.567 212.462 193.567C213.685 193.567 214.693 192.597 214.755 191.387Z" fill="white"/>
<path d="M190.164 174.638V183.159C190.164 184.421 191.196 185.454 192.459 185.454C193.719 185.457 194.754 184.421 194.754 183.159V172.34C194.754 171.685 194.47 171.102 194.029 170.683L190.078 174.638H190.164Z" fill="white"/>
<path d="M204.443 162.136C204.424 162.024 204.4 161.915 204.367 161.81C204.401 161.915 204.426 162.025 204.443 162.136Z" fill="white"/>
<path d="M204.469 162.363C204.464 162.288 204.457 162.213 204.445 162.14C204.457 162.213 204.465 162.288 204.469 162.363Z" fill="white"/>
<path d="M210.167 191.278C210.167 191.396 210.176 191.513 210.193 191.626C210.174 191.509 210.164 191.39 210.164 191.268L210.117 155.086L210.167 191.278Z" fill="white"/>
<circle cx="295" cy="277" r="34" fill="#413950"/>
<circle cx="295" cy="277" r="33.5" stroke="white" stroke-opacity="0.1"/>
<circle cx="46" cy="139" r="34" fill="#413950"/>
<circle cx="46" cy="139" r="33.5" stroke="white" stroke-opacity="0.1"/>
<circle cx="92" cy="277" r="34" fill="#413950"/>
<circle cx="92" cy="277" r="33.5" stroke="white" stroke-opacity="0.1"/>
<circle cx="339" cy="139" r="34" fill="#413950"/>
<circle cx="339" cy="139" r="33.5" stroke="white" stroke-opacity="0.1"/>
<circle cx="193" cy="41" r="34" fill="#413950"/>
<circle cx="193" cy="41" r="33.5" stroke="white" stroke-opacity="0.1"/>
<g clip-path="url(#clip1_0_1)">
<path d="M282.045 289H286.818V276.636L280 271.182V286.818C280 288.025 280.917 289 282.045 289Z" fill="#4285F4"/>
<path d="M303.184 289H307.956C309.088 289 310.002 288.022 310.002 286.818V271.182L303.184 276.636" fill="#34A853"/>
<path d="M303.184 267.182V276.637L310.002 271.182V268.273C310.002 265.575 307.114 264.037 305.093 265.655" fill="#FBBC04"/>
<path d="M286.816 276.636V267.182L294.998 273.727L303.18 267.182V276.636L294.998 283.182" fill="#EA4335"/>
<path d="M280 268.273V271.182L286.818 276.637V267.182L284.909 265.655C282.884 264.037 280 265.575 280 268.273Z" fill="#C5221F"/>
</g>
<g clip-path="url(#clip2_0_1)">
<path d="M37.4237 142.897C37.4237 144.622 36.03 146.016 34.3056 146.016C32.5812 146.016 31.1875 144.622 31.1875 142.897C31.1875 141.173 32.5812 139.779 34.3056 139.779H37.4237V142.897ZM38.9828 142.897C38.9828 141.173 40.3765 139.779 42.1009 139.779C43.8253 139.779 45.219 141.173 45.219 142.897V150.693C45.219 152.417 43.8253 153.811 42.1009 153.811C40.3765 153.811 38.9828 152.417 38.9828 150.693V142.897Z" fill="#E01E5A"/>
<path d="M42.1011 130.378C40.3767 130.378 38.983 128.984 38.983 127.26C38.983 125.535 40.3767 124.142 42.1011 124.142C43.8255 124.142 45.2192 125.535 45.2192 127.26V130.378H42.1011ZM42.1011 131.961C43.8255 131.961 45.2192 133.354 45.2192 135.079C45.2192 136.803 43.8255 138.197 42.1011 138.197H34.2822C32.5578 138.197 31.1641 136.803 31.1641 135.079C31.1641 133.354 32.5578 131.961 34.2822 131.961H42.1011Z" fill="#36C5F0"/>
<path d="M54.6 135.079C54.6 133.354 55.9937 131.961 57.7181 131.961C59.4425 131.961 60.8362 133.354 60.8362 135.079C60.8362 136.803 59.4425 138.197 57.7181 138.197H54.6V135.079ZM53.0409 135.079C53.0409 136.803 51.6472 138.197 49.9228 138.197C48.1984 138.197 46.8047 136.803 46.8047 135.079V127.26C46.8047 125.535 48.1984 124.142 49.9228 124.142C51.6472 124.142 53.0409 125.535 53.0409 127.26V135.079Z" fill="#2EB67D"/>
<path d="M49.9228 147.575C51.6472 147.575 53.0409 148.968 53.0409 150.693C53.0409 152.417 51.6472 153.811 49.9228 153.811C48.1984 153.811 46.8047 152.417 46.8047 150.693V147.575H49.9228ZM49.9228 146.016C48.1984 146.016 46.8047 144.622 46.8047 142.897C46.8047 141.173 48.1984 139.779 49.9228 139.779H57.7417C59.4661 139.779 60.8598 141.173 60.8598 142.897C60.8598 144.622 59.4661 146.016 57.7417 146.016H49.9228Z" fill="#ECB22E"/>
</g>
<g clip-path="url(#clip3_0_1)">
<path d="M99.3697 269.632H84.6328V284.369H99.3697V269.632Z" fill="white"/>
<path d="M99.3672 291L105.999 284.368H99.3672V291Z" fill="#EA4335"/>
<path d="M105.999 269.632H99.3672V284.369H105.999V269.632Z" fill="#FBBC04"/>
<path d="M99.3697 284.368H84.6328V291H99.3697V284.368Z" fill="#34A853"/>
<path d="M78 284.368V288.789C78 290.011 78.9892 291 80.2105 291H84.6316V284.368H78Z" fill="#188038"/>
<path d="M105.999 269.632V265.211C105.999 263.989 105.01 263 103.788 263H99.3672V269.632H105.999Z" fill="#1967D2"/>
<path d="M99.3684 263H80.2105C78.9892 263 78 263.989 78 265.211V284.368H84.6316V269.632H99.3684V263Z" fill="#4285F4"/>
<path d="M87.6559 281.063C87.1051 280.691 86.7238 280.148 86.5156 279.429L87.794 278.903C87.9101 279.345 88.1127 279.687 88.4019 279.931C88.6893 280.174 89.0393 280.293 89.4483 280.293C89.8664 280.293 90.2256 280.166 90.5259 279.912C90.8261 279.658 90.9772 279.334 90.9772 278.941C90.9772 278.54 90.8188 278.212 90.5019 277.958C90.1851 277.703 89.7872 277.576 89.3119 277.576H88.5733V276.311H89.2364C89.6454 276.311 89.9898 276.2 90.2698 275.979C90.5498 275.758 90.6898 275.456 90.6898 275.071C90.6898 274.728 90.5646 274.456 90.314 274.251C90.0635 274.047 89.7467 273.944 89.3617 273.944C88.9859 273.944 88.6875 274.043 88.4664 274.244C88.2455 274.445 88.0794 274.699 87.9838 274.983L86.7183 274.456C86.8859 273.981 87.1935 273.561 87.6448 273.198C88.0962 272.835 88.6727 272.652 89.3727 272.652C89.8904 272.652 90.3564 272.752 90.769 272.953C91.1817 273.153 91.5059 273.432 91.7398 273.785C91.9738 274.141 92.0898 274.539 92.0898 274.981C92.0898 275.432 91.9811 275.813 91.7638 276.127C91.5464 276.44 91.2793 276.679 90.9625 276.847V276.922C91.3716 277.091 91.727 277.368 91.9904 277.724C92.2575 278.083 92.3919 278.512 92.3919 279.013C92.3919 279.514 92.2648 279.962 92.0106 280.354C91.7564 280.747 91.4046 281.056 90.9588 281.281C90.5112 281.506 90.0083 281.62 89.4501 281.62C88.8035 281.622 88.2067 281.436 87.6559 281.063ZM95.5088 274.719L94.1051 275.734L93.4033 274.669L95.9214 272.853H96.8867V281.421H95.5088V274.719Z" fill="#4285F4"/>
</g>
<g clip-path="url(#clip4_0_1)">
<path d="M193.227 32.5996V39.3196C193.227 39.734 193.555 40.07 193.96 40.07H200.527C200.527 38.0092 200.078 35.7692 198.754 34.414C197.429 33.0588 195.24 32.5996 193.227 32.5996Z" fill="#00832D"/>
<path d="M200.386 54.8659C197.322 55.3811 193.612 54.4515 190.055 52.2787L191.248 49.5571L193.951 48.2803L198.186 50.7555L200.386 54.8659Z" fill="#00832D"/>
<path d="M179.133 33.1152C178.629 36.2512 179.527 40.048 181.661 43.688L184.397 42.3776L185.568 39.6896L183.27 35.848L179.133 33.1152Z" fill="#00832D"/>
<path d="M194.321 27C193.719 27 193.227 27.504 193.227 28.12V32.6C197.254 32.6 200.527 35.9488 200.527 40.0704H204.904C205.506 40.0704 205.999 39.5664 205.999 38.9504C205.999 32.3536 200.767 27 194.321 27Z" fill="#34A853"/>
<path d="M204.96 52.2897C205.54 51.7185 205.562 50.7889 205.015 50.1953L199.74 44.4385C199.16 43.8785 198.262 43.8897 197.704 44.4609L193.961 48.2801L200.385 54.8545C202.126 54.5969 203.428 53.8353 204.61 52.6257L204.96 52.2897Z" fill="#34A853"/>
<path d="M181.672 43.6879C182.635 45.3231 183.915 46.9695 185.371 48.4591C186.827 49.9487 188.468 51.2815 190.066 52.2671L193.973 48.2799L185.568 39.6895" fill="#34A853"/>
<path d="M188.381 36.9008L188.983 36.3072C189.694 35.5792 189.694 34.3808 188.983 33.6528L184.025 28.5792C183.314 27.8512 182.143 27.8512 181.431 28.5792L181.256 28.7024C180.107 29.8784 179.417 31.4016 179.133 33.1152L185.568 39.6896L188.381 36.9008Z" fill="#34A853"/>
</g>
<g clip-path="url(#clip5_0_1)">
<path d="M339.013 159.978C350.605 159.978 360.002 150.581 360.002 138.989C360.002 127.397 350.605 118 339.013 118C327.421 118 318.023 127.397 318.023 138.989C318.023 150.581 327.421 159.978 339.013 159.978Z" fill="#1A73E8"/>
<path d="M346.649 148.055H332.347C330.313 148.055 328.538 146.519 328.538 144.485V144.463V145.653C328.538 147.687 330.313 149.462 332.346 149.462H346.649C348.705 149.462 350.458 147.666 350.458 145.653V144.463C350.458 146.497 348.683 148.055 346.649 148.055ZM328.517 137.799V136.176L325.855 131.783C325.704 131.545 325.639 131.329 325.66 131.112V132.973C325.66 133.146 325.725 133.32 325.833 133.514L328.517 137.799Z" fill="#185ABC"/>
<path d="M346.651 130.399H326.614C325.813 130.399 325.359 131.091 325.9 131.827L328.518 136.371V144.485C328.518 146.563 330.033 148.294 332.088 148.294H346.629C348.685 148.294 350.438 146.541 350.438 144.485V134.229C350.459 132.151 348.706 130.399 346.651 130.399Z" fill="white"/>
<path d="M346.41 136.133H332.583C331.977 136.133 331.393 135.765 331.393 135.181C331.393 134.597 331.977 134.229 332.583 134.229H346.41C347.015 134.229 347.6 134.597 347.6 135.181C347.6 135.765 347.015 136.133 346.41 136.133H346.41ZM346.41 139.941H332.583C331.977 139.941 331.393 139.573 331.393 138.989C331.393 138.405 331.977 138.037 332.583 138.037H346.41C347.015 138.037 347.6 138.405 347.6 138.989C347.6 139.573 347.015 139.941 346.41 139.941H346.41ZM342.58 143.771H332.561C331.955 143.771 331.371 143.403 331.371 142.819C331.371 142.235 331.955 141.867 332.561 141.867H342.58C343.186 141.867 343.77 142.235 343.77 142.819C343.77 143.403 343.186 143.771 342.58 143.771Z" fill="#8AB4F8"/>
<path d="M360.002 138.881C359.959 148.077 353.965 155.889 345.699 158.658C343.6 159.372 341.35 159.74 339.013 159.74C327.458 159.74 318.088 150.414 318.023 138.881V139.011C318.023 150.609 327.414 160 339.013 160C341.35 160 343.6 159.61 345.699 158.918C354.008 156.127 360.002 148.272 360.002 139.011V138.881Z" fill="#185ABC"/>
<path d="M345.675 119.082C343.577 118.368 341.326 118 338.989 118C327.391 118 318 127.391 318 138.989V139.119C318.065 127.586 327.434 118.26 338.989 118.26C341.326 118.26 343.577 118.649 345.675 119.342C353.963 122.112 359.935 129.923 359.978 139.119V138.989C360 129.728 354.006 121.874 345.675 119.082Z" fill="#8AB4F8"/>
</g>
</g>
<defs>
<clipPath id="clip0_0_1">
<rect width="1440" height="4264" fill="white" transform="translate(-796 -1257)"/>
</clipPath>
<clipPath id="clip1_0_1">
<rect width="30" height="24" fill="white" transform="translate(280 265)"/>
</clipPath>
<clipPath id="clip2_0_1">
<rect width="30" height="30" fill="white" transform="translate(31 124)"/>
</clipPath>
<clipPath id="clip3_0_1">
<rect width="28" height="28" fill="white" transform="translate(78 263)"/>
</clipPath>
<clipPath id="clip4_0_1">
<rect width="27" height="28" fill="white" transform="translate(179 27)"/>
</clipPath>
<clipPath id="clip5_0_1">
<rect width="42" height="42" fill="white" transform="translate(318 118)"/>
</clipPath>
</defs>
</svg>
