<svg width="393" height="440" viewBox="0 0 393 440" fill="none" xmlns="http://www.w3.org/2000/svg">
<path d="M37.2422 191.273L36.8429 187.919L31.2954 186.596L19.3302 193.933L37.2422 191.271V191.273ZM36.4456 188.273L36.7589 190.904L21.378 193.19L31.3692 187.063L36.4456 188.273Z" fill="white"/>
<path d="M19.001 194.244L36.3396 182.993L52.7976 182.465L19.001 194.244Z" fill="#FFC75A"/>
<path d="M30.9633 182.226L19.0022 194.244L26.2329 174.602L30.9633 182.226Z" fill="#FFC75A"/>
<path d="M30.9611 182.226L31.2867 186.272L19 194.244L30.9611 182.226Z" fill="white"/>
<path d="M120.937 208.361C123.614 207.728 125.567 206.401 126.479 204.413C127.691 201.765 126.776 198.261 123.905 194.549C120.653 190.345 114.937 185.893 107.373 181.674C99.1448 177.085 90.321 174.096 81.1489 172.787C78.7797 172.449 76.3838 172.222 73.9715 172.107C71.8786 166.617 70.7851 161.635 70.4595 158L70.0254 158.039C70.3489 161.666 71.4322 166.623 73.4964 172.087C68.594 171.882 63.6199 172.136 58.6336 172.848C45.6896 174.7 37.0336 179.068 36.9476 179.113L37.1462 179.5C37.2322 179.457 45.835 175.117 58.7114 173.276C63.7285 172.56 68.7332 172.31 73.6643 172.529C75.151 176.383 77.1271 180.479 79.6684 184.523C84.3537 191.983 92.6083 201.851 105.323 206.489C111.409 208.709 116.965 209.299 120.931 208.361H120.937ZM74.1455 172.552C76.4821 172.67 78.8022 172.891 81.0998 173.221C90.2145 174.524 98.9831 177.497 107.162 182.057C114.675 186.247 120.346 190.658 123.561 194.817C126.327 198.395 127.224 201.739 126.083 204.231C125.09 206.401 122.606 207.825 119.09 208.236C115.275 208.683 110.569 207.937 105.479 206.08C92.8786 201.485 84.6936 191.694 80.0431 184.291C77.5571 180.333 75.6158 176.33 74.1455 172.552Z" fill="white"/>
<g opacity="0.5">
<line opacity="0.2" x1="79.1016" y1="-32" x2="79.1016" y2="472" stroke="white"/>
<line opacity="0.2" x1="236.301" y1="-32" x2="236.301" y2="472" stroke="white"/>
<line opacity="0.2" x1="392.359" y1="-32" x2="392.359" y2="472" stroke="white"/>
<line opacity="0.2" y1="11.9706" x2="391.861" y2="11.9706" stroke="white"/>
<line opacity="0.2" y1="71.2646" x2="391.861" y2="71.2646" stroke="white"/>
<line opacity="0.2" y1="130.559" x2="391.861" y2="130.559" stroke="white"/>
<line opacity="0.2" y1="189.853" x2="391.861" y2="189.853" stroke="white"/>
<line opacity="0.2" y1="249.147" x2="391.861" y2="249.147" stroke="white"/>
<line opacity="0.2" y1="308.441" x2="391.861" y2="308.441" stroke="white"/>
<line opacity="0.2" y1="367.735" x2="391.861" y2="367.735" stroke="white"/>
<line opacity="0.2" y1="427.029" x2="391.861" y2="427.029" stroke="white"/>
<line opacity="0.2" x1="0.5" y1="-32" x2="0.5" y2="472" stroke="white"/>
<line opacity="0.2" x1="157.699" y1="-32" x2="157.699" y2="472" stroke="white"/>
<line opacity="0.2" x1="313.758" y1="-32" x2="313.758" y2="472" stroke="white"/>
<rect opacity="0.02" y="-32" width="78.6" height="504" fill="#403850"/>
<rect opacity="0.02" x="157.199" y="-32" width="78.6" height="504" fill="#403850"/>
<rect opacity="0.02" x="314.398" y="-32" width="78.6" height="504" fill="#403850"/>
</g>
<g filter="url(#filter0_d_313_7)">
<rect x="69" y="80" width="255" height="120" rx="8" fill="white"/>
<rect x="85" y="96" width="40" height="40" rx="5" fill="#FF5A5F"/>
<path d="M117.732 101H92.2883C91.0245 101 90 102.037 90 103.316V128.792C90 130.071 91.0245 131.108 92.2883 131.108H117.732C118.996 131.108 120.02 130.071 120.02 128.792V103.316C120.02 102.037 118.996 101 117.732 101Z" fill="#FF5A5F"/>
<path d="M105.363 116.482V121.484C105.361 121.766 105.25 122.036 105.054 122.237C104.853 122.437 104.582 122.549 104.299 122.549C104.017 122.549 103.746 122.437 103.544 122.237C103.349 122.036 103.238 121.766 103.235 121.484V117.547H99.654C99.5148 117.548 99.3767 117.522 99.2477 117.469C99.1187 117.416 99.0013 117.338 98.9023 117.239C98.8034 117.14 98.7248 117.022 98.6712 116.892C98.6176 116.762 98.59 116.623 98.59 116.482C98.59 116.341 98.6176 116.201 98.6712 116.071C98.7248 115.941 98.8034 115.823 98.9023 115.724C99.0013 115.625 99.1187 115.547 99.2477 115.494C99.3767 115.441 99.5148 115.415 99.654 115.416H104.299C104.567 115.415 104.826 115.519 105.02 115.706C105.129 115.801 105.215 115.92 105.272 116.053C105.298 116.121 105.321 116.191 105.34 116.262C105.354 116.334 105.362 116.408 105.363 116.482Z" fill="white"/>
<path d="M109.852 111.909V123.173C109.852 123.192 109.852 123.21 109.851 123.228C109.836 123.506 109.714 123.768 109.512 123.957C109.31 124.146 109.043 124.248 108.767 124.241C108.492 124.235 108.23 124.12 108.037 123.922C107.844 123.723 107.734 123.457 107.732 123.178V112.978H97.6927C97.554 112.98 97.4164 112.953 97.2879 112.9C97.1594 112.847 97.0425 112.769 96.944 112.67C96.8455 112.571 96.7673 112.453 96.714 112.323C96.6606 112.194 96.6332 112.055 96.6332 111.914C96.6332 111.774 96.6606 111.635 96.714 111.505C96.7673 111.375 96.8455 111.258 96.944 111.159C97.0425 111.06 97.1594 110.982 97.2879 110.929C97.4164 110.876 97.554 110.849 97.6927 110.85H108.792C108.933 110.85 109.072 110.879 109.201 110.934C109.331 110.989 109.449 111.07 109.547 111.171L109.548 111.171C109.559 111.183 109.571 111.195 109.582 111.207C109.604 111.232 109.625 111.258 109.645 111.285C109.674 111.324 109.7 111.365 109.723 111.408C109.732 111.422 109.739 111.436 109.746 111.451C109.754 111.468 109.763 111.486 109.77 111.504C109.783 111.535 109.794 111.566 109.804 111.598L109.805 111.6C109.82 111.649 109.832 111.7 109.84 111.751V111.753C109.845 111.787 109.849 111.821 109.851 111.856C109.852 111.874 109.852 111.891 109.852 111.909Z" fill="white"/>
<path d="M114.601 125.244C114.601 125.263 114.601 125.281 114.6 125.299C114.585 125.55 114.484 125.787 114.315 125.97C114.145 126.153 113.917 126.27 113.671 126.301C113.425 126.332 113.176 126.274 112.968 126.139C112.759 126.004 112.604 125.799 112.529 125.56C112.519 125.528 112.51 125.495 112.504 125.462C112.5 125.445 112.497 125.428 112.494 125.41C112.486 125.357 112.482 125.303 112.482 125.249L112.459 108.485V108.397L95.8844 108.42C95.7456 108.421 95.6079 108.394 95.4794 108.341C95.3508 108.288 95.2339 108.21 95.1353 108.111C95.0368 108.012 94.9586 107.895 94.9052 107.765C94.8518 107.635 94.8243 107.496 94.8243 107.356C94.8243 107.215 94.8518 107.076 94.9052 106.946C94.9586 106.817 95.0368 106.699 95.1353 106.6C95.2339 106.501 95.3508 106.423 95.4794 106.37C95.6079 106.317 95.7456 106.29 95.8844 106.291L113.518 106.268H113.53C113.796 106.268 114.053 106.37 114.249 106.553C114.445 106.737 114.565 106.988 114.586 107.257C114.586 107.265 114.587 107.274 114.587 107.283C114.587 107.299 114.589 107.316 114.589 107.332C114.589 107.353 114.577 107.37 114.577 107.391L114.601 125.244Z" fill="white"/>
<path d="M140.696 106.584C141.956 106.584 142.688 107.34 142.688 108.384C142.688 109.368 141.944 110.076 140.9 110.076C139.88 110.076 139.088 109.236 138.992 108.072L137.732 108.276C137.864 110.028 139.184 111.3 140.948 111.3C142.772 111.3 144.08 110.076 144.08 108.384C144.08 106.692 142.868 105.468 140.948 105.468H139.688L139.88 103.692H143.396V102.504H138.764L138.332 106.584H140.696ZM148.36 109.92V107.784H150.532V106.692H148.36V104.64H147.064V106.692H144.892V107.784H147.064V109.92H148.36ZM157.608 104.664C155.748 104.664 154.392 106.044 154.392 107.952C154.392 109.86 155.748 111.24 157.62 111.24C159.12 111.24 160.404 110.268 160.656 108.936L159.408 108.78C159.192 109.56 158.484 110.124 157.62 110.124C156.528 110.124 155.7 109.212 155.688 107.952C155.688 106.692 156.54 105.78 157.62 105.78C158.46 105.78 159.204 106.344 159.396 107.136L160.644 106.98C160.428 105.636 159.156 104.664 157.608 104.664ZM167.202 111V104.904H165.906V108.408C165.906 109.38 165.138 110.076 164.238 110.076C163.314 110.076 162.786 109.428 162.786 108.528V104.904H161.478V108.624C161.478 110.136 162.45 111.24 163.95 111.24C164.73 111.24 165.498 110.856 165.918 110.22V111H167.202ZM173.666 109.164C173.666 107.784 172.166 107.532 171.002 107.34C170.018 107.172 169.562 107.028 169.562 106.572C169.562 106.08 170.114 105.72 170.774 105.72C171.65 105.72 172.286 106.14 172.298 106.74H173.51C173.51 105.528 172.358 104.652 170.786 104.652C169.406 104.652 168.338 105.468 168.338 106.584C168.338 108.036 169.418 108.216 170.846 108.432C171.458 108.516 172.406 108.672 172.406 109.308C172.418 109.812 171.83 110.184 171.014 110.184C170.102 110.184 169.442 109.656 169.442 108.936H168.242C168.242 110.28 169.406 111.252 171.014 111.252C172.562 111.252 173.666 110.376 173.666 109.164ZM174.802 109.284C174.802 110.448 175.51 111.24 176.602 111.24C176.938 111.24 177.37 111.18 177.682 111.072V110.028C177.454 110.1 177.166 110.136 176.998 110.136C176.446 110.136 176.11 109.752 176.11 109.2V105.924H177.598V104.904H176.11V103.428H175.042L174.874 104.904H173.866V105.924H174.802V109.284ZM181.638 104.664C179.682 104.664 178.326 106.02 178.326 107.952C178.326 109.884 179.682 111.24 181.638 111.24C183.582 111.24 184.95 109.884 184.95 107.952C184.95 106.02 183.582 104.664 181.638 104.664ZM181.638 110.076C180.462 110.076 179.634 109.188 179.634 107.952C179.634 106.716 180.462 105.828 181.638 105.828C182.802 105.828 183.654 106.716 183.654 107.952C183.654 109.188 182.802 110.076 181.638 110.076ZM187.192 111V107.424C187.192 106.464 187.768 105.828 188.632 105.828C189.472 105.828 190.012 106.464 190.012 107.424V111H191.32V107.424C191.32 106.5 191.932 105.828 192.784 105.828C193.612 105.84 194.2 106.5 194.2 107.424V111H195.496V107.316C195.496 105.768 194.488 104.676 193.06 104.676C192.184 104.676 191.416 105.12 190.996 105.816C190.636 105.12 189.844 104.664 188.896 104.664C188.164 104.664 187.528 105.012 187.144 105.6V104.904H185.884V111H187.192ZM197.666 107.388C197.834 106.416 198.554 105.756 199.538 105.756C200.546 105.756 201.314 106.428 201.458 107.388H197.666ZM196.31 107.88C196.31 109.836 197.678 111.24 199.586 111.24C200.978 111.24 202.238 110.376 202.586 109.176L201.362 108.996C201.134 109.668 200.378 110.148 199.562 110.148C198.566 110.148 197.81 109.428 197.654 108.348L202.79 108.36C202.802 108.216 202.814 108.036 202.814 107.892C202.814 106.008 201.47 104.664 199.574 104.664C197.678 104.664 196.31 106.008 196.31 107.88ZM203.751 104.904V111H205.059V107.664C205.059 106.584 205.635 105.816 206.499 105.816C206.739 105.816 207.111 105.864 207.447 106.008V104.844C207.183 104.748 206.907 104.688 206.667 104.688C205.971 104.688 205.383 105.06 205.011 105.684V104.904H203.751ZM213.381 109.164C213.381 107.784 211.881 107.532 210.717 107.34C209.733 107.172 209.277 107.028 209.277 106.572C209.277 106.08 209.829 105.72 210.489 105.72C211.365 105.72 212.001 106.14 212.013 106.74H213.225C213.225 105.528 212.073 104.652 210.501 104.652C209.121 104.652 208.053 105.468 208.053 106.584C208.053 108.036 209.133 108.216 210.561 108.432C211.173 108.516 212.121 108.672 212.121 109.308C212.133 109.812 211.545 110.184 210.729 110.184C209.817 110.184 209.157 109.656 209.157 108.936H207.957C207.957 110.28 209.121 111.252 210.729 111.252C212.277 111.252 213.381 110.376 213.381 109.164ZM220.579 110.076C219.415 110.076 218.563 109.176 218.563 107.952C218.563 106.716 219.415 105.828 220.579 105.828C221.743 105.828 222.583 106.716 222.583 107.952C222.583 109.188 221.743 110.076 220.579 110.076ZM222.595 105.816C222.079 105.096 221.275 104.664 220.327 104.664C218.539 104.664 217.267 106.044 217.267 107.952C217.267 109.86 218.539 111.24 220.327 111.24C221.275 111.24 222.079 110.808 222.595 110.088V111H223.903V104.904H222.595V105.816ZM225.13 104.904V111H226.438V107.664C226.438 106.584 227.014 105.816 227.878 105.816C228.118 105.816 228.49 105.864 228.826 106.008V104.844C228.562 104.748 228.286 104.688 228.046 104.688C227.35 104.688 226.762 105.06 226.39 105.684V104.904H225.13ZM230.233 107.388C230.401 106.416 231.121 105.756 232.105 105.756C233.113 105.756 233.881 106.428 234.025 107.388H230.233ZM228.877 107.88C228.877 109.836 230.245 111.24 232.153 111.24C233.545 111.24 234.805 110.376 235.153 109.176L233.929 108.996C233.701 109.668 232.945 110.148 232.129 110.148C231.133 110.148 230.377 109.428 230.221 108.348L235.357 108.36C235.369 108.216 235.381 108.036 235.381 107.892C235.381 106.008 234.037 104.664 232.141 104.664C230.245 104.664 228.877 106.008 228.877 107.88ZM245.124 111V104.904H243.828V108.408C243.828 109.38 243.06 110.076 242.16 110.076C241.236 110.076 240.708 109.428 240.708 108.528V104.904H239.4V108.624C239.4 110.136 240.372 111.24 241.872 111.24C242.652 111.24 243.42 110.856 243.84 110.22V111H245.124ZM249.62 110.016C248.456 110.016 247.616 109.14 247.616 107.952C247.616 106.764 248.456 105.888 249.62 105.888C250.772 105.888 251.636 106.74 251.636 107.952C251.636 109.14 250.784 110.016 249.62 110.016ZM252.932 107.952C252.932 106.044 251.636 104.664 249.872 104.664C248.936 104.664 248.156 105.072 247.628 105.756V104.904H246.356V113.76H247.664V110.172C248.18 110.844 248.96 111.24 249.872 111.24C251.648 111.24 252.932 109.86 252.932 107.952ZM259.019 103.968C259.031 103.428 259.367 103.068 259.871 103.068C260.099 103.068 260.291 103.104 260.495 103.164V102.072C260.183 101.964 259.859 101.904 259.475 101.904C258.431 101.904 257.723 102.684 257.723 103.86V104.904H256.787V105.924H257.723V111H259.019V105.924H260.495V104.904H259.019V103.968ZM264.321 104.664C262.365 104.664 261.009 106.02 261.009 107.952C261.009 109.884 262.365 111.24 264.321 111.24C266.265 111.24 267.633 109.884 267.633 107.952C267.633 106.02 266.265 104.664 264.321 104.664ZM264.321 110.076C263.145 110.076 262.317 109.188 262.317 107.952C262.317 106.716 263.145 105.828 264.321 105.828C265.485 105.828 266.337 106.716 266.337 107.952C266.337 109.188 265.485 110.076 264.321 110.076ZM268.567 104.904V111H269.875V107.664C269.875 106.584 270.451 105.816 271.315 105.816C271.555 105.816 271.927 105.864 272.263 106.008V104.844C271.999 104.748 271.723 104.688 271.483 104.688C270.787 104.688 270.199 105.06 269.827 105.684V104.904H268.567ZM137.864 120.904V127H139.172V123.664C139.172 122.584 139.748 121.816 140.612 121.816C140.852 121.816 141.224 121.864 141.56 122.008V120.844C141.296 120.748 141.02 120.688 140.78 120.688C140.084 120.688 139.496 121.06 139.124 121.684V120.904H137.864ZM142.967 123.388C143.135 122.416 143.855 121.756 144.839 121.756C145.847 121.756 146.615 122.428 146.759 123.388H142.967ZM141.611 123.88C141.611 125.836 142.979 127.24 144.887 127.24C146.279 127.24 147.539 126.376 147.887 125.176L146.663 124.996C146.435 125.668 145.679 126.148 144.863 126.148C143.867 126.148 143.111 125.428 142.955 124.348L148.091 124.36C148.103 124.216 148.115 124.036 148.115 123.892C148.115 122.008 146.771 120.664 144.875 120.664C142.979 120.664 141.611 122.008 141.611 123.88ZM149.052 120.904V127H150.36V123.496C150.36 122.524 151.116 121.828 152.028 121.828C152.94 121.828 153.48 122.476 153.48 123.376V127H154.776V123.28C154.776 121.768 153.804 120.664 152.316 120.664C151.524 120.664 150.768 121.048 150.336 121.684V120.904H149.052ZM156.955 123.388C157.123 122.416 157.843 121.756 158.827 121.756C159.835 121.756 160.603 122.428 160.747 123.388H156.955ZM155.599 123.88C155.599 125.836 156.967 127.24 158.875 127.24C160.267 127.24 161.527 126.376 161.875 125.176L160.651 124.996C160.423 125.668 159.667 126.148 158.851 126.148C157.855 126.148 157.099 125.428 156.943 124.348L162.079 124.36C162.091 124.216 162.103 124.036 162.103 123.892C162.103 122.008 160.759 120.664 158.863 120.664C156.967 120.664 155.599 122.008 155.599 123.88ZM166.304 127L167.54 122.416L168.752 127H170.468L172.46 120.904H171.116L169.616 125.74L168.224 120.904H166.844L165.5 125.716L163.976 120.904H162.62L164.588 127H166.304ZM176.275 126.076C175.111 126.076 174.259 125.176 174.259 123.952C174.259 122.716 175.111 121.828 176.275 121.828C177.439 121.828 178.279 122.716 178.279 123.952C178.279 125.188 177.439 126.076 176.275 126.076ZM178.291 121.816C177.775 121.096 176.971 120.664 176.023 120.664C174.235 120.664 172.963 122.044 172.963 123.952C172.963 125.86 174.235 127.24 176.023 127.24C176.971 127.24 177.775 126.808 178.291 126.088V127H179.599V120.904H178.291V121.816ZM180.825 118.144V127H182.121V118.144H180.825ZM187.08 125.284C187.08 126.448 187.788 127.24 188.88 127.24C189.215 127.24 189.648 127.18 189.96 127.072V126.028C189.732 126.1 189.444 126.136 189.276 126.136C188.724 126.136 188.388 125.752 188.388 125.2V121.924H189.876V120.904H188.388V119.428H187.32L187.152 120.904H186.144V121.924H187.08V125.284ZM190.903 118.144V127H192.211V123.496C192.211 122.524 192.967 121.828 193.879 121.828C194.791 121.828 195.331 122.476 195.331 123.376V127H196.627V123.268C196.627 121.756 195.667 120.664 194.155 120.664C193.387 120.664 192.619 121.024 192.211 121.636V118.144H190.903ZM197.907 120.904V127H199.203V120.904H197.907ZM198.555 119.92C199.023 119.92 199.359 119.584 199.359 119.116C199.359 118.66 199.023 118.336 198.555 118.336C198.075 118.336 197.739 118.66 197.739 119.116C197.739 119.584 198.075 119.92 198.555 119.92ZM205.823 125.164C205.823 123.784 204.323 123.532 203.159 123.34C202.175 123.172 201.719 123.028 201.719 122.572C201.719 122.08 202.271 121.72 202.931 121.72C203.807 121.72 204.443 122.14 204.455 122.74H205.667C205.667 121.528 204.515 120.652 202.943 120.652C201.563 120.652 200.495 121.468 200.495 122.584C200.495 124.036 201.575 124.216 203.003 124.432C203.615 124.516 204.563 124.672 204.563 125.308C204.575 125.812 203.987 126.184 203.171 126.184C202.259 126.184 201.599 125.656 201.599 124.936H200.399C200.399 126.28 201.563 127.252 203.171 127.252C204.719 127.252 205.823 126.376 205.823 125.164ZM213.261 127L214.497 122.416L215.709 127H217.425L219.417 120.904H218.073L216.573 125.74L215.181 120.904H213.801L212.457 125.716L210.933 120.904H209.577L211.545 127H213.261ZM221.276 123.388C221.444 122.416 222.164 121.756 223.148 121.756C224.156 121.756 224.924 122.428 225.068 123.388H221.276ZM219.92 123.88C219.92 125.836 221.288 127.24 223.196 127.24C224.588 127.24 225.848 126.376 226.196 125.176L224.972 124.996C224.744 125.668 223.988 126.148 223.172 126.148C222.176 126.148 221.42 125.428 221.264 124.348L226.4 124.36C226.412 124.216 226.424 124.036 226.424 123.892C226.424 122.008 225.08 120.664 223.184 120.664C221.288 120.664 219.92 122.008 219.92 123.88ZM228.428 123.388C228.596 122.416 229.316 121.756 230.3 121.756C231.308 121.756 232.076 122.428 232.22 123.388H228.428ZM227.072 123.88C227.072 125.836 228.44 127.24 230.348 127.24C231.74 127.24 233 126.376 233.348 125.176L232.124 124.996C231.896 125.668 231.14 126.148 230.324 126.148C229.328 126.148 228.572 125.428 228.416 124.348L233.552 124.36C233.564 124.216 233.576 124.036 233.576 123.892C233.576 122.008 232.232 120.664 230.336 120.664C228.44 120.664 227.072 122.008 227.072 123.88ZM234.512 127H235.82V124.216L238.28 127H239.936L236.996 123.724L239.828 120.904H238.16L235.82 123.256V118.144H234.512V127ZM243.624 118.504L239.976 129.76H241.2L244.848 118.504H243.624Z" fill="black"/>
<path opacity="0.5" d="M139.07 143.81H142.41V142.89H139.07V140.94H142.81V139.92H137.91V147H142.91V145.98H139.07V143.81ZM143.695 141.92V147H144.785V144.08C144.785 143.27 145.415 142.69 146.175 142.69C146.935 142.69 147.385 143.23 147.385 143.98V147H148.465V143.9C148.465 142.64 147.655 141.72 146.415 141.72C145.755 141.72 145.125 142.04 144.765 142.57V141.92H143.695ZM151.828 146.17C150.858 146.17 150.148 145.45 150.148 144.46C150.148 143.43 150.858 142.69 151.828 142.69C152.798 142.69 153.498 143.43 153.498 144.46C153.498 145.45 152.798 146.17 151.828 146.17ZM151.848 148.58C151.108 148.58 150.448 148.07 150.278 147.37L149.278 147.49C149.458 148.66 150.558 149.5 151.888 149.5C153.438 149.5 154.548 148.55 154.548 146.91V141.92H153.468V142.61C153.038 142.07 152.418 141.74 151.628 141.74C150.148 141.74 149.068 142.88 149.068 144.46C149.068 146 150.148 147.1 151.628 147.1C152.388 147.1 153.028 146.79 153.458 146.25V146.9C153.458 147.97 152.788 148.58 151.848 148.58ZM158.008 146.23C157.038 146.23 156.328 145.48 156.328 144.46C156.328 143.43 157.038 142.69 158.008 142.69C158.978 142.69 159.678 143.43 159.678 144.46C159.678 145.49 158.978 146.23 158.008 146.23ZM159.688 142.68C159.258 142.08 158.588 141.72 157.798 141.72C156.308 141.72 155.248 142.87 155.248 144.46C155.248 146.05 156.308 147.2 157.798 147.2C158.588 147.2 159.258 146.84 159.688 146.24V147H160.778V141.92H159.688V142.68ZM164.236 146.17C163.266 146.17 162.556 145.45 162.556 144.46C162.556 143.43 163.266 142.69 164.236 142.69C165.206 142.69 165.906 143.43 165.906 144.46C165.906 145.45 165.206 146.17 164.236 146.17ZM164.256 148.58C163.516 148.58 162.856 148.07 162.686 147.37L161.686 147.49C161.866 148.66 162.966 149.5 164.296 149.5C165.846 149.5 166.956 148.55 166.956 146.91V141.92H165.876V142.61C165.446 142.07 164.826 141.74 164.036 141.74C162.556 141.74 161.476 142.88 161.476 144.46C161.476 146 162.556 147.1 164.036 147.1C164.796 147.1 165.436 146.79 165.866 146.25V146.9C165.866 147.97 165.196 148.58 164.256 148.58ZM168.786 143.99C168.926 143.18 169.526 142.63 170.346 142.63C171.186 142.63 171.826 143.19 171.946 143.99H168.786ZM167.656 144.4C167.656 146.03 168.796 147.2 170.386 147.2C171.546 147.2 172.596 146.48 172.886 145.48L171.866 145.33C171.676 145.89 171.046 146.29 170.366 146.29C169.536 146.29 168.906 145.69 168.776 144.79L173.056 144.8C173.066 144.68 173.076 144.53 173.076 144.41C173.076 142.84 171.956 141.72 170.376 141.72C168.796 141.72 167.656 142.84 167.656 144.4ZM176.359 141.92V147H177.449V144.08C177.449 143.27 178.079 142.69 178.839 142.69C179.599 142.69 180.049 143.23 180.049 143.98V147H181.129V143.9C181.129 142.64 180.319 141.72 179.079 141.72C178.419 141.72 177.789 142.04 177.429 142.57V141.92H176.359ZM184.482 141.72C182.852 141.72 181.722 142.85 181.722 144.46C181.722 146.07 182.852 147.2 184.482 147.2C186.102 147.2 187.242 146.07 187.242 144.46C187.242 142.85 186.102 141.72 184.482 141.72ZM184.482 146.23C183.502 146.23 182.812 145.49 182.812 144.46C182.812 143.43 183.502 142.69 184.482 142.69C185.452 142.69 186.162 143.43 186.162 144.46C186.162 145.49 185.452 146.23 184.482 146.23ZM190.657 147L191.687 143.18L192.697 147H194.127L195.787 141.92H194.667L193.417 145.95L192.257 141.92H191.107L189.987 145.93L188.717 141.92H187.587L189.227 147H190.657ZM198.703 147.15C199.103 147.15 199.383 146.87 199.383 146.48C199.383 146.1 199.103 145.83 198.703 145.83C198.313 145.83 198.033 146.1 198.033 146.48C198.033 146.87 198.313 147.15 198.703 147.15ZM199.233 145.08C199.233 144.3 199.483 143.96 200.033 143.61C200.733 143.16 201.263 142.72 201.263 141.8C201.263 140.56 200.203 139.67 198.833 139.67C197.413 139.67 196.363 140.63 196.213 141.96L197.313 142.17C197.413 141.31 197.993 140.67 198.803 140.67C199.523 140.67 200.073 141.18 200.073 141.85C200.073 142.39 199.653 142.7 199.193 143.02C198.553 143.47 198.183 143.97 198.183 145.08H199.233Z" fill="black"/>
<rect x="137" y="164" width="112" height="20" rx="4" fill="#42AF8F"/>
<path d="M164.47 174.88C164.47 173.29 163.04 173.05 161.72 172.87C160.7 172.73 159.88 172.6 159.88 171.79C159.88 171.14 160.5 170.66 161.46 170.66C162.47 170.66 163.2 171.26 163.2 172.1H164.31C164.31 170.69 163.11 169.67 161.45 169.67C159.8 169.67 158.69 170.6 158.69 171.91C158.69 173.54 160.05 173.78 161.38 173.96C162.38 174.1 163.28 174.22 163.28 175.03C163.28 175.74 162.69 176.26 161.68 176.26C160.54 176.26 159.74 175.6 159.74 174.69H158.6C158.6 176.17 159.88 177.25 161.65 177.25C163.38 177.25 164.47 176.26 164.47 174.88ZM166.319 173.99C166.459 173.18 167.059 172.63 167.879 172.63C168.719 172.63 169.359 173.19 169.479 173.99H166.319ZM165.189 174.4C165.189 176.03 166.329 177.2 167.919 177.2C169.079 177.2 170.129 176.48 170.419 175.48L169.399 175.33C169.209 175.89 168.579 176.29 167.899 176.29C167.069 176.29 166.439 175.69 166.309 174.79L170.589 174.8C170.599 174.68 170.609 174.53 170.609 174.41C170.609 172.84 169.489 171.72 167.909 171.72C166.329 171.72 165.189 172.84 165.189 174.4ZM171.426 171.92V177H172.516V174.08C172.516 173.27 173.146 172.69 173.906 172.69C174.666 172.69 175.116 173.23 175.116 173.98V177H176.196V173.9C176.196 172.64 175.386 171.72 174.146 171.72C173.486 171.72 172.856 172.04 172.496 172.57V171.92H171.426ZM179.679 172.74C180.649 172.74 181.349 173.47 181.349 174.46C181.349 175.45 180.649 176.18 179.679 176.18C178.719 176.18 177.999 175.47 177.999 174.46C177.999 173.47 178.709 172.74 179.679 172.74ZM176.919 174.46C176.919 176.05 177.999 177.2 179.469 177.2C180.249 177.2 180.899 176.86 181.339 176.29V177H182.399V169.62H181.309V172.61C180.879 172.05 180.229 171.72 179.469 171.72C177.989 171.72 176.919 172.87 176.919 174.46ZM188.893 170.91C189.973 170.91 190.743 171.52 190.743 172.38C190.753 173.23 189.973 173.84 188.893 173.84H187.513V170.91H188.893ZM189.083 174.84C190.753 174.84 191.943 173.81 191.943 172.38C191.943 170.95 190.753 169.92 189.093 169.92H186.353V177H187.513V174.84H189.083ZM192.756 171.92V177H193.846V174.22C193.846 173.32 194.326 172.68 195.046 172.68C195.246 172.68 195.556 172.72 195.836 172.84V171.87C195.616 171.79 195.386 171.74 195.186 171.74C194.606 171.74 194.116 172.05 193.806 172.57V171.92H192.756ZM198.664 171.72C197.034 171.72 195.904 172.85 195.904 174.46C195.904 176.07 197.034 177.2 198.664 177.2C200.284 177.2 201.424 176.07 201.424 174.46C201.424 172.85 200.284 171.72 198.664 171.72ZM198.664 176.23C197.684 176.23 196.994 175.49 196.994 174.46C196.994 173.43 197.684 172.69 198.664 172.69C199.634 172.69 200.344 173.43 200.344 174.46C200.344 175.49 199.634 176.23 198.664 176.23ZM204.959 176.18C203.989 176.18 203.289 175.45 203.289 174.46C203.289 173.47 203.989 172.74 204.959 172.74C205.919 172.74 206.639 173.45 206.639 174.46C206.639 175.45 205.929 176.18 204.959 176.18ZM207.719 174.46C207.719 172.87 206.639 171.72 205.169 171.72C204.389 171.72 203.739 172.06 203.299 172.63V171.92H202.239V179.3H203.329V176.31C203.759 176.87 204.409 177.2 205.169 177.2C206.649 177.2 207.719 176.05 207.719 174.46ZM211.048 171.72C209.418 171.72 208.288 172.85 208.288 174.46C208.288 176.07 209.418 177.2 211.048 177.2C212.668 177.2 213.808 176.07 213.808 174.46C213.808 172.85 212.668 171.72 211.048 171.72ZM211.048 176.23C210.068 176.23 209.378 175.49 209.378 174.46C209.378 173.43 210.068 172.69 211.048 172.69C212.018 172.69 212.728 173.43 212.728 174.46C212.728 175.49 212.018 176.23 211.048 176.23ZM218.982 175.47C218.982 174.32 217.732 174.11 216.762 173.95C215.942 173.81 215.562 173.69 215.562 173.31C215.562 172.9 216.022 172.6 216.572 172.6C217.302 172.6 217.832 172.95 217.842 173.45H218.852C218.852 172.44 217.892 171.71 216.582 171.71C215.432 171.71 214.542 172.39 214.542 173.32C214.542 174.53 215.442 174.68 216.632 174.86C217.142 174.93 217.932 175.06 217.932 175.59C217.942 176.01 217.452 176.32 216.772 176.32C216.012 176.32 215.462 175.88 215.462 175.28H214.462C214.462 176.4 215.432 177.21 216.772 177.21C218.062 177.21 218.982 176.48 218.982 175.47ZM222.348 176.23C221.378 176.23 220.668 175.48 220.668 174.46C220.668 173.43 221.378 172.69 222.348 172.69C223.318 172.69 224.018 173.43 224.018 174.46C224.018 175.49 223.318 176.23 222.348 176.23ZM224.028 172.68C223.598 172.08 222.928 171.72 222.138 171.72C220.648 171.72 219.588 172.87 219.588 174.46C219.588 176.05 220.648 177.2 222.138 177.2C222.928 177.2 223.598 176.84 224.028 176.24V177H225.118V171.92H224.028V172.68ZM226.176 169.62V177H227.256V169.62H226.176Z" fill="white"/>
</g>
<g filter="url(#filter1_d_313_7)">
<g opacity="0.8">
<rect x="69" y="216" width="255" height="120" rx="8" fill="white"/>
<rect x="85" y="232" width="40" height="40" rx="5" fill="#D5DBE9"/>
<rect x="137" y="236" width="159" height="26" rx="13" fill="#EFF4F9"/>
<rect x="137" y="270" width="76" height="17" rx="8.5" fill="#EFF4F9"/>
<rect x="137" y="300" width="112" height="20" rx="4" fill="#EFF4F9"/>
<path d="M164.47 310.88C164.47 309.29 163.04 309.05 161.72 308.87C160.7 308.73 159.88 308.6 159.88 307.79C159.88 307.14 160.5 306.66 161.46 306.66C162.47 306.66 163.2 307.26 163.2 308.1H164.31C164.31 306.69 163.11 305.67 161.45 305.67C159.8 305.67 158.69 306.6 158.69 307.91C158.69 309.54 160.05 309.78 161.38 309.96C162.38 310.1 163.28 310.22 163.28 311.03C163.28 311.74 162.69 312.26 161.68 312.26C160.54 312.26 159.74 311.6 159.74 310.69H158.6C158.6 312.17 159.88 313.25 161.65 313.25C163.38 313.25 164.47 312.26 164.47 310.88ZM166.319 309.99C166.459 309.18 167.059 308.63 167.879 308.63C168.719 308.63 169.359 309.19 169.479 309.99H166.319ZM165.189 310.4C165.189 312.03 166.329 313.2 167.919 313.2C169.079 313.2 170.129 312.48 170.419 311.48L169.399 311.33C169.209 311.89 168.579 312.29 167.899 312.29C167.069 312.29 166.439 311.69 166.309 310.79L170.589 310.8C170.599 310.68 170.609 310.53 170.609 310.41C170.609 308.84 169.489 307.72 167.909 307.72C166.329 307.72 165.189 308.84 165.189 310.4ZM171.426 307.92V313H172.516V310.08C172.516 309.27 173.146 308.69 173.906 308.69C174.666 308.69 175.116 309.23 175.116 309.98V313H176.196V309.9C176.196 308.64 175.386 307.72 174.146 307.72C173.486 307.72 172.856 308.04 172.496 308.57V307.92H171.426ZM179.679 308.74C180.649 308.74 181.349 309.47 181.349 310.46C181.349 311.45 180.649 312.18 179.679 312.18C178.719 312.18 177.999 311.47 177.999 310.46C177.999 309.47 178.709 308.74 179.679 308.74ZM176.919 310.46C176.919 312.05 177.999 313.2 179.469 313.2C180.249 313.2 180.899 312.86 181.339 312.29V313H182.399V305.62H181.309V308.61C180.879 308.05 180.229 307.72 179.469 307.72C177.989 307.72 176.919 308.87 176.919 310.46ZM188.893 306.91C189.973 306.91 190.743 307.52 190.743 308.38C190.753 309.23 189.973 309.84 188.893 309.84H187.513V306.91H188.893ZM189.083 310.84C190.753 310.84 191.943 309.81 191.943 308.38C191.943 306.95 190.753 305.92 189.093 305.92H186.353V313H187.513V310.84H189.083ZM192.756 307.92V313H193.846V310.22C193.846 309.32 194.326 308.68 195.046 308.68C195.246 308.68 195.556 308.72 195.836 308.84V307.87C195.616 307.79 195.386 307.74 195.186 307.74C194.606 307.74 194.116 308.05 193.806 308.57V307.92H192.756ZM198.664 307.72C197.034 307.72 195.904 308.85 195.904 310.46C195.904 312.07 197.034 313.2 198.664 313.2C200.284 313.2 201.424 312.07 201.424 310.46C201.424 308.85 200.284 307.72 198.664 307.72ZM198.664 312.23C197.684 312.23 196.994 311.49 196.994 310.46C196.994 309.43 197.684 308.69 198.664 308.69C199.634 308.69 200.344 309.43 200.344 310.46C200.344 311.49 199.634 312.23 198.664 312.23ZM204.959 312.18C203.989 312.18 203.289 311.45 203.289 310.46C203.289 309.47 203.989 308.74 204.959 308.74C205.919 308.74 206.639 309.45 206.639 310.46C206.639 311.45 205.929 312.18 204.959 312.18ZM207.719 310.46C207.719 308.87 206.639 307.72 205.169 307.72C204.389 307.72 203.739 308.06 203.299 308.63V307.92H202.239V315.3H203.329V312.31C203.759 312.87 204.409 313.2 205.169 313.2C206.649 313.2 207.719 312.05 207.719 310.46ZM211.048 307.72C209.418 307.72 208.288 308.85 208.288 310.46C208.288 312.07 209.418 313.2 211.048 313.2C212.668 313.2 213.808 312.07 213.808 310.46C213.808 308.85 212.668 307.72 211.048 307.72ZM211.048 312.23C210.068 312.23 209.378 311.49 209.378 310.46C209.378 309.43 210.068 308.69 211.048 308.69C212.018 308.69 212.728 309.43 212.728 310.46C212.728 311.49 212.018 312.23 211.048 312.23ZM218.982 311.47C218.982 310.32 217.732 310.11 216.762 309.95C215.942 309.81 215.562 309.69 215.562 309.31C215.562 308.9 216.022 308.6 216.572 308.6C217.302 308.6 217.832 308.95 217.842 309.45H218.852C218.852 308.44 217.892 307.71 216.582 307.71C215.432 307.71 214.542 308.39 214.542 309.32C214.542 310.53 215.442 310.68 216.632 310.86C217.142 310.93 217.932 311.06 217.932 311.59C217.942 312.01 217.452 312.32 216.772 312.32C216.012 312.32 215.462 311.88 215.462 311.28H214.462C214.462 312.4 215.432 313.21 216.772 313.21C218.062 313.21 218.982 312.48 218.982 311.47ZM222.348 312.23C221.378 312.23 220.668 311.48 220.668 310.46C220.668 309.43 221.378 308.69 222.348 308.69C223.318 308.69 224.018 309.43 224.018 310.46C224.018 311.49 223.318 312.23 222.348 312.23ZM224.028 308.68C223.598 308.08 222.928 307.72 222.138 307.72C220.648 307.72 219.588 308.87 219.588 310.46C219.588 312.05 220.648 313.2 222.138 313.2C222.928 313.2 223.598 312.84 224.028 312.24V313H225.118V307.92H224.028V308.68ZM226.176 305.62V313H227.256V305.62H226.176Z" fill="#D5DBE9"/>
</g>
<g opacity="0.24" filter="url(#filter2_d_313_7)">
<rect x="69" y="352" width="255" height="120" rx="8" fill="white"/>
<rect x="85" y="368" width="40" height="40" rx="5" fill="#D5DBE9"/>
<rect x="137" y="372" width="159" height="26" rx="13" fill="#EFF4F9"/>
<rect x="137" y="406" width="76" height="17" rx="8.5" fill="#EFF4F9"/>
<rect x="137" y="436" width="112" height="20" rx="4" fill="#EFF4F9"/>
</g>
</g>
<defs>
<filter id="filter0_d_313_7" x="35" y="50" width="323" height="188" filterUnits="userSpaceOnUse" color-interpolation-filters="sRGB">
<feFlood flood-opacity="0" result="BackgroundImageFix"/>
<feColorMatrix in="SourceAlpha" type="matrix" values="0 0 0 0 0 0 0 0 0 0 0 0 0 0 0 0 0 0 127 0" result="hardAlpha"/>
<feOffset dy="4"/>
<feGaussianBlur stdDeviation="17"/>
<feComposite in2="hardAlpha" operator="out"/>
<feColorMatrix type="matrix" values="0 0 0 0 0 0 0 0 0 0 0 0 0 0 0 0 0 0 0.05 0"/>
<feBlend mode="normal" in2="BackgroundImageFix" result="effect1_dropShadow_313_7"/>
<feBlend mode="normal" in="SourceGraphic" in2="effect1_dropShadow_313_7" result="shape"/>
</filter>
<filter id="filter1_d_313_7" x="35" y="186" width="323" height="324" filterUnits="userSpaceOnUse" color-interpolation-filters="sRGB">
<feFlood flood-opacity="0" result="BackgroundImageFix"/>
<feColorMatrix in="SourceAlpha" type="matrix" values="0 0 0 0 0 0 0 0 0 0 0 0 0 0 0 0 0 0 127 0" result="hardAlpha"/>
<feOffset dy="4"/>
<feGaussianBlur stdDeviation="17"/>
<feComposite in2="hardAlpha" operator="out"/>
<feColorMatrix type="matrix" values="0 0 0 0 0 0 0 0 0 0 0 0 0 0 0 0 0 0 0.05 0"/>
<feBlend mode="normal" in2="BackgroundImageFix" result="effect1_dropShadow_313_7"/>
<feBlend mode="normal" in="SourceGraphic" in2="effect1_dropShadow_313_7" result="shape"/>
</filter>
<filter id="filter2_d_313_7" x="35" y="322" width="323" height="188" filterUnits="userSpaceOnUse" color-interpolation-filters="sRGB">
<feFlood flood-opacity="0" result="BackgroundImageFix"/>
<feColorMatrix in="SourceAlpha" type="matrix" values="0 0 0 0 0 0 0 0 0 0 0 0 0 0 0 0 0 0 127 0" result="hardAlpha"/>
<feOffset dy="4"/>
<feGaussianBlur stdDeviation="17"/>
<feComposite in2="hardAlpha" operator="out"/>
<feColorMatrix type="matrix" values="0 0 0 0 0 0 0 0 0 0 0 0 0 0 0 0 0 0 0.05 0"/>
<feBlend mode="normal" in2="BackgroundImageFix" result="effect1_dropShadow_313_7"/>
<feBlend mode="normal" in="SourceGraphic" in2="effect1_dropShadow_313_7" result="shape"/>
</filter>
</defs>
</svg>
