<svg width="38" height="38" viewBox="0 0 38 38" fill="none" xmlns="http://www.w3.org/2000/svg">
<path d="M34.1983 0H2.82192C1.26342 0 0 1.27867 0 2.85599V34.2719C0 35.8492 1.26342 37.1279 2.82192 37.1279H34.1983C35.7568 37.1279 37.0202 35.8492 37.0202 34.2719V2.85599C37.0202 1.27867 35.7568 0 34.1983 0Z" fill="#FF5A5F"/>
<path d="M18.9505 19.0912V25.2601C18.9471 25.6078 18.8105 25.9406 18.5695 26.1883C18.321 26.4354 17.9866 26.5738 17.6383 26.5738C17.29 26.5738 16.9556 26.4354 16.7071 26.1883C16.4661 25.9406 16.3295 25.6078 16.3261 25.2601V20.4049H11.9098C11.7382 20.4068 11.5679 20.3742 11.4087 20.309C11.2496 20.2438 11.1049 20.1473 10.9828 20.0252C10.8608 19.903 10.7639 19.7575 10.6978 19.5972C10.6317 19.4369 10.5977 19.2649 10.5977 19.0912C10.5977 18.9174 10.6317 18.7454 10.6978 18.5851C10.7639 18.4248 10.8608 18.2793 10.9828 18.1571C11.1049 18.035 11.2496 17.9385 11.4087 17.8733C11.5679 17.8081 11.7382 17.7755 11.9098 17.7774H17.6383C17.969 17.7761 18.2874 17.904 18.5272 18.1344C18.6611 18.2518 18.7672 18.3982 18.8376 18.5628C18.8701 18.647 18.8983 18.7328 18.9222 18.8198C18.9394 18.9093 18.9488 19.0001 18.9505 19.0912V19.0912Z" fill="white"/>
<path d="M24.481 13.4529V27.3435C24.481 27.3662 24.4803 27.3884 24.4796 27.4111C24.4606 27.7541 24.3106 28.0762 24.0612 28.3093C23.8118 28.5424 23.4827 28.6683 23.1433 28.6602C22.804 28.6522 22.481 28.5109 22.2427 28.2663C22.0043 28.0216 21.8693 27.6928 21.8662 27.3493V14.7713H9.48629C9.31517 14.7726 9.14549 14.7397 8.98703 14.6743C8.82856 14.6089 8.68444 14.5125 8.56298 14.3905C8.44153 14.2685 8.34513 14.1233 8.27934 13.9635C8.21356 13.8036 8.17969 13.6321 8.17969 13.4589C8.17969 13.2857 8.21356 13.1143 8.27934 12.9544C8.34513 12.7945 8.44153 12.6494 8.56298 12.5274C8.68444 12.4054 8.82856 12.3089 8.98703 12.2436C9.14549 12.1782 9.31517 12.1452 9.48629 12.1465H23.1736C23.347 12.1467 23.5187 12.1818 23.6786 12.2498C23.8384 12.3178 23.9834 12.4174 24.1048 12.5426L24.1055 12.5419C24.1198 12.5569 24.1339 12.5718 24.148 12.5867C24.175 12.6173 24.2012 12.6493 24.226 12.6827C24.2613 12.7311 24.2934 12.7817 24.3223 12.8342C24.3323 12.852 24.3415 12.8698 24.3499 12.8875C24.3605 12.9089 24.3705 12.9309 24.3797 12.953C24.3952 12.9907 24.4095 13.0298 24.4222 13.0689L24.4229 13.071C24.4414 13.1321 24.4558 13.1943 24.466 13.2573V13.2595C24.4724 13.3014 24.4768 13.3441 24.4796 13.3868C24.4803 13.4088 24.481 13.4308 24.481 13.4529Z" fill="white"/>
<path d="M30.3417 29.8975C30.3417 29.9203 30.3409 29.9423 30.3402 29.965C30.3218 30.2738 30.1972 30.5664 29.988 30.792C29.7788 31.0175 29.4982 31.1619 29.1949 31.2001C28.8915 31.2383 28.5845 31.1678 28.3271 31.0009C28.0697 30.8341 27.8781 30.5813 27.7856 30.2864C27.7734 30.247 27.7633 30.2069 27.7552 30.1664C27.7501 30.1449 27.7466 30.1236 27.7431 30.1022C27.7331 30.0364 27.7282 29.9698 27.7283 29.9032L27.6999 9.23041V9.12232L7.26037 9.15005C7.0892 9.15145 6.91945 9.11853 6.76091 9.0532C6.60237 8.98788 6.45818 8.89143 6.33665 8.76942C6.21512 8.64742 6.11867 8.50227 6.05284 8.34234C5.98701 8.18242 5.95313 8.01089 5.95312 7.83765C5.95312 7.66441 5.98701 7.49288 6.05284 7.33296C6.11867 7.17304 6.21512 7.02789 6.33665 6.90588C6.45818 6.78387 6.60237 6.68743 6.76091 6.6221C6.91945 6.55677 7.0892 6.52386 7.26037 6.52525L29.0052 6.49609H29.02C29.349 6.49617 29.6659 6.62187 29.9074 6.84809C30.1488 7.07431 30.297 7.3844 30.3225 7.7164C30.3232 7.72636 30.3239 7.73702 30.3239 7.74769C30.3246 7.76831 30.3267 7.78823 30.3267 7.80885C30.3267 7.83445 30.3119 7.85579 30.3112 7.88139L30.3417 29.8975Z" fill="white"/>
</svg>
