<svg width="33" height="33" viewBox="0 0 33 33" fill="none" xmlns="http://www.w3.org/2000/svg">
<path d="M21.6773 6.67749C22.7476 6.67749 23.774 7.10267 24.5309 7.85949C25.2877 8.6163 25.7129 9.64277 25.7129 10.7131V22.8198C25.7129 23.8901 25.2877 24.9166 24.5309 25.6734C23.774 26.4302 22.7476 26.8554 21.6773 26.8554H11.5883C10.518 26.8554 9.49155 26.4302 8.73473 25.6734C7.97791 24.9166 7.55273 23.8901 7.55273 22.8198V10.7131C7.55273 9.64277 7.97791 8.6163 8.73473 7.85949C9.49155 7.10267 10.518 6.67749 11.5883 6.67749H21.6773ZM21.6773 8.69528H11.5883C11.0793 8.69512 10.5889 8.88738 10.2157 9.23352C9.84239 9.57967 9.61375 10.0541 9.57557 10.5617L9.57053 10.7131V22.8198C9.57036 23.3289 9.76263 23.8192 10.1088 24.1925C10.4549 24.5657 10.9294 24.7944 11.437 24.8326L11.5883 24.8376H21.6773C22.1863 24.8378 22.6767 24.6455 23.0499 24.2994C23.4232 23.9532 23.6518 23.4788 23.69 22.9712L23.6951 22.8198V10.7131C23.6951 10.1779 23.4825 9.66469 23.1041 9.28628C22.7257 8.90787 22.2124 8.69528 21.6773 8.69528V8.69528ZM20.6684 14.7487C20.936 14.7487 21.1926 14.855 21.3818 15.0442C21.571 15.2334 21.6773 15.49 21.6773 15.7576V21.8109C21.6773 22.0785 21.571 22.3351 21.3818 22.5243C21.1926 22.7135 20.936 22.8198 20.6684 22.8198H12.5972C12.3296 22.8198 12.073 22.7135 11.8838 22.5243C11.6946 22.3351 11.5883 22.0785 11.5883 21.8109V15.7576C11.5883 15.49 11.6946 15.2334 11.8838 15.0442C12.073 14.855 12.3296 14.7487 12.5972 14.7487H20.6684ZM16.6328 10.7131C16.9004 10.7131 17.157 10.8194 17.3462 11.0086C17.5354 11.1978 17.6417 11.4544 17.6417 11.722C17.6417 11.9895 17.5354 12.2462 17.3462 12.4354C17.157 12.6246 16.9004 12.7309 16.6328 12.7309H12.5972C12.3296 12.7309 12.073 12.6246 11.8838 12.4354C11.6946 12.2462 11.5883 11.9895 11.5883 11.722C11.5883 11.4544 11.6946 11.1978 11.8838 11.0086C12.073 10.8194 12.3296 10.7131 12.5972 10.7131H16.6328Z" fill="white"/>
</svg>
